<svg width="1200" height="1632" viewBox="0 0 1200 1632" fill="none" xmlns="http://www.w3.org/2000/svg">
<rect width="1200" height="1632" fill="#457738"/>
<path fill-rule="evenodd" clip-rule="evenodd" d="M45 44H1156V1586H45V44ZM782 1580V1443H420V1580H283V1289H918V1580H782ZM776 1449V1580H426V1449H776ZM924 1580H1150V819H789.834C785.642 919.671 702.702 1000 601 1000C499.298 1000 416.358 919.671 412.166 819H51V1580H277V1283H433.003C510.716 1154.44 691.157 1150.22 766.534 1283H924V1580ZM51 50V813H412.01C412.003 812.334 412 811.667 412 811C412 706.618 496.618 622 601 622C705.382 622 790 706.618 790 811C790 811.667 789.997 812.334 789.99 813H1150V50H924V347H767.997C690.284 475.556 509.843 479.776 434.466 347H277L277 50H51ZM783.989 813C783.996 812.334 784 811.667 784 811C784 709.932 702.068 628 601 628C499.932 628 418 709.932 418 811C418 811.667 418.004 812.334 418.011 813H783.989ZM441.397 347C514.712 471.411 685.03 467.925 760.95 347L441.397 347ZM440.05 1283C515.97 1162.08 686.288 1158.59 759.603 1283H440.05ZM918 341V50.0001L781 50V187L419 187V50L283 50L283 341L918 341ZM425 50V181L775 181V50.0001L425 50ZM783.828 819C779.641 916.356 699.388 994 601 994C502.612 994 422.359 916.356 418.172 819H783.828Z" fill="white"/>
</svg>
